<svg width="221" height="143" viewBox="0 0 221 143" fill="none" xmlns="http://www.w3.org/2000/svg">
<path d="M169.723 102.695C169.723 102.695 172.436 111.955 174.813 120.076C177.068 127.779 179.171 134.96 179.171 134.96L175.366 140" stroke="#8D30B9" stroke-width="5.00949" stroke-linecap="round" stroke-linejoin="round"/>
<path d="M135.457 54.1649C135.457 54.1649 132.733 67.0758 127.317 73.5767C122.179 79.7433 115.505 84.1803 115.505 84.1803L110.097 76.0819" stroke="#8D30B9" stroke-width="5.00949" stroke-linecap="round" stroke-linejoin="round"/>
<path d="M184.717 55.238C184.717 55.238 193.638 64.9603 201.61 67.7956C209.172 70.4852 217.176 70.9034 217.176 70.9034L217.704 61.1797" stroke="#8D30B9" stroke-width="5.00949" stroke-linecap="round" stroke-linejoin="round"/>
<path d="M181.427 105.825C181.427 105.825 181.138 115.823 186.805 122.106C192.18 128.067 199.298 132.043 199.298 132.043L197.086 138.396" stroke="#8D30B9" stroke-width="5.00949" stroke-linecap="round" stroke-linejoin="round"/>
<path d="M189.352 74.8518C188.121 66.9276 183.775 23.9663 182.54 2.40153L128.526 17.7575C129.589 40.9333 133.468 76.1274 135.263 87.6846C137.472 101.916 148.606 120.572 152.815 129.318L173.186 107.462L215.06 109.832C207.163 102.504 191.033 85.6803 189.352 74.8518Z" fill="#8D30B9"/>
<path d="M140.816 30.4989C143.8 33.2187 150.778 38.6557 158.176 37.8829C165.102 37.1594 170.544 31.1862 173.145 27.7374C174.077 26.5008 173.496 24.8156 172.015 24.3626C168.072 23.1567 160.606 21.3015 153.808 22.0117C147.175 22.7046 142.876 25.6624 140.788 27.5052C139.867 28.3173 139.908 29.672 140.816 30.4989Z" fill="white"/>
<path d="M149.348 27.964C149.812 32.406 153.789 35.6308 158.231 35.1667C162.673 34.7027 165.897 30.7256 165.433 26.2836C164.969 21.8417 160.992 18.6169 156.55 19.0809C152.108 19.5449 148.884 23.522 149.348 27.964Z" fill="#FF3495"/>
<path d="M153.369 27.5445C153.601 29.7655 155.59 31.3779 157.811 31.1459C160.032 30.9139 161.644 28.9253 161.412 26.7043C161.18 24.4833 159.192 22.8709 156.971 23.103C154.75 23.335 153.137 25.3235 153.369 27.5445Z" fill="#5F2583"/>
<path d="M136.586 32.2805C140.786 29.2444 149.639 21.0248 154.973 20.1966C160.307 19.3684 163.626 20.8732 169.838 23.0474C178.277 26.001 183.67 24.6516 185.464 23.448" stroke="#8D30B9" stroke-width="3.13093" stroke-linecap="round" stroke-linejoin="bevel"/>
<path d="M165.613 21.3646C173.378 21.2072 175.251 19.6599 178.71 17.6324" stroke="#8D30B9" stroke-width="3.13093" stroke-linecap="round" stroke-linejoin="bevel"/>
<path d="M158.402 52.7C154.325 53.541 151.785 50.3698 151.785 50.3698C151.785 50.3698 154.042 50.9576 157.486 50.3698C160.93 49.7819 166.359 47.1254 166.359 47.1254C166.359 47.1254 162.478 51.8591 158.402 52.7Z" stroke="white" stroke-width="2.50475" stroke-linecap="round" stroke-linejoin="round"/>
<path d="M50.5823 102.695C50.5823 102.695 47.8699 111.955 45.4929 120.076C43.238 127.779 41.1348 134.96 41.1348 134.96L44.9401 140" stroke="#8D30B9" stroke-width="5.00949" stroke-linecap="round" stroke-linejoin="round"/>
<path d="M84.8484 54.1649C84.8484 54.1649 87.573 67.0758 92.9888 73.5767C98.1262 79.7433 104.801 84.1803 104.801 84.1803L110.209 76.0819" stroke="#8D30B9" stroke-width="5.00949" stroke-linecap="round" stroke-linejoin="round"/>
<path d="M35.589 55.238C35.589 55.238 26.6676 64.9603 18.6956 67.7956C11.1334 70.4852 3.12962 70.9034 3.12962 70.9034L2.60132 61.1797" stroke="#8D30B9" stroke-width="5.00949" stroke-linecap="round" stroke-linejoin="round"/>
<path d="M38.8784 105.825C38.8784 105.825 39.1674 115.823 33.5008 122.106C28.1256 128.067 21.0081 132.043 21.0081 132.043L23.2195 138.396" stroke="#8D30B9" stroke-width="5.00949" stroke-linecap="round" stroke-linejoin="round"/>
<path d="M30.9541 74.8518C32.1842 66.9276 36.5302 23.9663 37.7657 2.40153L91.78 17.7575C90.7168 40.9333 86.8373 76.1274 85.0431 87.6846C82.8337 101.916 71.6997 120.572 67.4903 129.318L47.1201 107.462L5.24552 109.832C13.1426 102.504 29.273 85.6803 30.9541 74.8518Z" fill="#F34A8E"/>
<path d="M79.6596 33.0035C76.6755 35.7234 69.6968 41.1604 62.2989 40.3876C55.3727 39.664 49.9309 33.6909 47.3304 30.2421C46.3979 29.0055 46.9788 27.3202 48.4598 26.8673C52.403 25.6613 59.869 23.8062 66.667 24.5163C73.3001 25.2092 77.5988 28.167 79.6873 30.0098C80.6076 30.822 80.5667 32.1767 79.6596 33.0035Z" fill="white"/>
<path d="M71.127 30.4686C70.663 34.9106 66.6859 38.1354 62.2439 37.6714C57.8019 37.2074 54.5771 33.2303 55.0412 28.7883C55.5052 24.3463 59.4823 21.1215 63.9243 21.5855C68.3662 22.0496 71.591 26.0267 71.127 30.4686Z" fill="#FF3495"/>
<path d="M67.1052 30.0489C66.8732 32.2699 64.8847 33.8823 62.6637 33.6503C60.4427 33.4183 58.8303 31.4297 59.0623 29.2087C59.2943 26.9877 61.2829 25.3753 63.5039 25.6073C65.7249 25.8394 67.3373 27.8279 67.1052 30.0489Z" fill="#5F2583"/>
<path d="M83.8887 34.7851C79.6888 31.7491 70.8358 23.5294 65.5018 22.7012C60.1679 21.873 56.8487 23.3778 50.6365 25.552C42.1973 28.5057 36.8049 27.1562 35.0109 25.9526" stroke="#8D30B9" stroke-width="3.13093" stroke-linecap="round" stroke-linejoin="bevel"/>
<path d="M54.8619 23.8692C47.0962 23.7118 45.2238 22.1645 41.7648 20.1371" stroke="#8D30B9" stroke-width="3.13093" stroke-linecap="round" stroke-linejoin="bevel"/>
<path d="M67.1744 53.5006C67.1744 53.5006 63.5997 55.2522 59.5233 54.4112C55.4469 53.5702 52.5996 50.2562 52.5996 50.2562" stroke="white" stroke-width="2.50475" stroke-linecap="round" stroke-linejoin="round"/>
</svg>
