<svg width="275" height="158" viewBox="0 0 275 158" fill="none" xmlns="http://www.w3.org/2000/svg">
<path fill-rule="evenodd" clip-rule="evenodd" d="M29.9902 0L0 42.8304L163.83 157.546L274.145 0H29.9902Z" fill="#8D30B9"/>
<path d="M71.3278 28.2931L73.7801 35.0376H68.8755L71.3278 28.2931Z" fill="white"/>
<path d="M109.209 38.8289C108.146 38.8289 107.253 38.4667 106.528 37.7422C105.803 37.0178 105.441 36.1082 105.441 35.0134C105.441 33.9187 105.803 33.0091 106.528 32.2846C107.253 31.5602 108.146 31.198 109.209 31.198C110.272 31.198 111.166 31.5602 111.891 32.2846C112.615 33.0091 112.978 33.9187 112.978 35.0134C112.978 36.1082 112.615 37.0178 111.891 37.7422C111.166 38.4667 110.272 38.8289 109.209 38.8289Z" fill="white"/>
<path d="M121.064 37.7905C121.789 38.515 122.699 38.8772 123.794 38.8772C124.889 38.8772 125.799 38.515 126.523 37.7905C127.248 37.0499 127.61 36.1243 127.61 35.0134C127.61 33.9026 127.248 32.9849 126.523 32.2605C125.799 31.5199 124.889 31.1497 123.794 31.1497C122.699 31.1497 121.789 31.5199 121.064 32.2605C120.339 32.9849 119.977 33.9026 119.977 35.0134C119.977 36.1243 120.339 37.0499 121.064 37.7905Z" fill="white"/>
<path d="M199.504 37.7905C200.228 38.515 201.138 38.8772 202.233 38.8772C203.328 38.8772 204.238 38.515 204.963 37.7905C205.687 37.0499 206.05 36.1243 206.05 35.0134C206.05 33.9026 205.687 32.9849 204.963 32.2605C204.238 31.5199 203.328 31.1497 202.233 31.1497C201.138 31.1497 200.228 31.5199 199.504 32.2605C198.779 32.9849 198.417 33.9026 198.417 35.0134C198.417 36.1243 198.779 37.0499 199.504 37.7905Z" fill="white"/>
<path fill-rule="evenodd" clip-rule="evenodd" d="M54.8584 20H217.858V49.8543H79.0628L79.1246 49.9159L71.3873 57.6199L63.6169 49.883L63.6457 49.8543H54.8584V20ZM74.6454 37.6456L76.1229 41.0506H79.1182L72.7701 25.0045H69.885L63.5379 41.0506H66.5573L68.0097 37.6456H74.6454ZM104.692 39.5292C105.932 40.7528 107.438 41.3645 109.209 41.3645C110.997 41.3645 112.502 40.7528 113.726 39.5292C114.966 38.3057 115.586 36.8004 115.586 35.0134C115.586 33.2264 114.966 31.7212 113.726 30.4977C112.502 29.2741 110.997 28.6624 109.209 28.6624C107.438 28.6624 105.932 29.2741 104.692 30.4977C103.452 31.7212 102.832 33.2264 102.832 35.0134C102.832 36.8004 103.452 38.3057 104.692 39.5292ZM91.0797 28.9763V41.0506H88.4711V31.4877H84.4371V35.9794C84.4371 37.8952 84.0184 39.2556 83.181 40.0605C82.3436 40.8654 81.1519 41.1955 79.606 41.0506V38.6116C80.3468 38.7404 80.9023 38.5874 81.2727 38.1527C81.6431 37.7181 81.8283 36.9534 81.8283 35.8586V28.9763H91.0797ZM102.212 28.9763V31.4877H96.7287V41.0506H94.1197V28.9763H102.212ZM124.204 28.6624C125.863 28.6624 127.28 29.2822 128.456 30.5218C129.631 31.7453 130.219 33.2425 130.219 35.0134C130.219 36.8004 129.631 38.3057 128.456 39.5292C127.28 40.7528 125.863 41.3645 124.204 41.3645C122.368 41.3645 120.959 40.6884 119.977 39.336V45.0224H117.368V28.9763H119.977V30.715C120.959 29.3466 122.368 28.6624 124.204 28.6624ZM142.756 28.9763H140.751L134.567 36.6314V28.9763H132.006V41.0506H134.011L140.195 33.3713V41.0506H142.756V28.9763ZM155.01 28.9763V31.4877H151.073V41.0506H148.464V31.4877H144.503V28.9763H155.01ZM166.558 41.0506H169.095V28.9763H166.438L162.935 34.5546L159.433 28.9763H156.776V41.0506H159.312V33.1298L162.766 38.6357H163.08L166.558 33.1057V41.0506ZM180.853 28.9763H182.858V41.0506H180.297V33.3713L174.114 41.0506H172.109V28.9763H174.669V36.6314L180.853 28.9763ZM193.157 41.0506H196.273L190.766 34.8927L196.08 28.9763H192.891L188.205 34.3131V28.9763H185.596V41.0506H188.205V35.4723L193.157 41.0506ZM206.05 28.9763H208.658V41.0506H206.05V39.3119C205.067 40.6803 203.658 41.3645 201.822 41.3645C200.164 41.3645 198.746 40.7528 197.571 39.5292C196.395 38.2896 195.807 36.7843 195.807 35.0134C195.807 33.2264 196.395 31.7212 197.571 30.4977C198.746 29.2741 200.164 28.6624 201.822 28.6624C203.658 28.6624 205.067 29.3385 206.05 30.6908V28.9763Z" fill="white"/>
</svg>
